<svg width="48" height="54" viewBox="0 0 48 54" fill="none" xmlns="http://www.w3.org/2000/svg">
<path id="Vector" d="M4.8 10.6205H0V47.7921C0 50.7128 2.16 53.1024 4.8 53.1024H38.4V47.7921H4.8V10.6205ZM43.2 0H14.4C11.76 0 9.6 2.38961 9.6 5.31024V37.1717C9.6 40.0923 11.76 42.4819 14.4 42.4819H43.2C45.84 42.4819 48 40.0923 48 37.1717V5.31024C48 2.38961 45.84 0 43.2 0ZM40.8 23.8961H16.8V18.5858H40.8V23.8961ZM31.2 34.5165H16.8V29.2063H31.2V34.5165ZM40.8 13.2756H16.8V7.96535H40.8V13.2756Z" fill="#109173"/>
</svg>
