<svg width="48" height="44" viewBox="0 0 48 44" fill="none" xmlns="http://www.w3.org/2000/svg">
<path d="M24 5.20457C27.48 5.20457 30.3 7.77947 30.3 10.957C30.3 14.1345 27.48 16.7094 24 16.7094C20.52 16.7094 17.7 14.1345 17.7 10.957C17.7 7.77947 20.52 5.20457 24 5.20457ZM24 29.8578C32.91 29.8578 42.3 33.8571 42.3 35.6102V38.6234H5.7V35.6102C5.7 33.8571 15.09 29.8578 24 29.8578ZM24 0C17.37 0 12 4.90326 12 10.957C12 17.0107 17.37 21.914 24 21.914C30.63 21.914 36 17.0107 36 10.957C36 4.90326 30.63 0 24 0ZM24 24.6532C15.99 24.6532 0 28.3238 0 35.6102V43.828H48V35.6102C48 28.3238 32.01 24.6532 24 24.6532Z" fill="#109173"/>
</svg>
