<svg width="53" height="53" viewBox="0 0 53 53" fill="none" xmlns="http://www.w3.org/2000/svg">
<path d="M50.0556 36.8056C46.375 36.8056 42.8417 36.2167 39.5439 35.1272C38.5133 34.8033 37.365 35.0389 36.5406 35.8339L30.0628 42.3117C21.73 38.0717 14.8989 31.27 10.6589 22.9078L17.1367 16.4006C17.9611 15.635 18.1967 14.4867 17.8728 13.4561C16.7833 10.1583 16.1944 6.625 16.1944 2.94444C16.1944 1.325 14.8694 0 13.25 0H2.94444C1.325 0 0 1.325 0 2.94444C0 30.5928 22.4072 53 50.0556 53C51.675 53 53 51.675 53 50.0556V39.75C53 38.1306 51.675 36.8056 50.0556 36.8056ZM47.1111 26.5H53C53 11.8661 41.1339 0 26.5 0V5.88889C37.895 5.88889 47.1111 15.105 47.1111 26.5ZM35.3333 26.5H41.2222C41.2222 18.3733 34.6267 11.7778 26.5 11.7778V17.6667C31.3878 17.6667 35.3333 21.6122 35.3333 26.5Z" fill="#109173"/>
</svg>
